<svg width="3099" height="498" viewBox="0 0 3099 498" fill="none" xmlns="http://www.w3.org/2000/svg">
<path d="M1522.91 299.854V284.684H1532V286.314H1524.74V291.44H1531.32V293.069H1524.74V299.854H1522.91ZM1538.85 300.092C1537.75 300.092 1536.8 299.85 1536.01 299.366C1535.22 298.877 1534.61 298.195 1534.18 297.321C1533.75 296.442 1533.54 295.42 1533.54 294.255C1533.54 293.089 1533.75 292.062 1534.18 291.173C1534.61 290.279 1535.21 289.583 1535.97 289.084C1536.74 288.58 1537.64 288.329 1538.67 288.329C1539.26 288.329 1539.85 288.427 1540.42 288.625C1541 288.822 1541.53 289.143 1542 289.588C1542.48 290.027 1542.85 290.61 1543.13 291.336C1543.42 292.062 1543.56 292.956 1543.56 294.017V294.758H1534.79V293.247H1541.78C1541.78 292.605 1541.65 292.032 1541.39 291.529C1541.14 291.025 1540.78 290.627 1540.31 290.336C1539.85 290.045 1539.3 289.899 1538.67 289.899C1537.97 289.899 1537.37 290.072 1536.86 290.418C1536.36 290.758 1535.97 291.203 1535.7 291.751C1535.43 292.299 1535.29 292.887 1535.29 293.514V294.521C1535.29 295.38 1535.44 296.109 1535.73 296.706C1536.04 297.299 1536.45 297.751 1536.99 298.062C1537.52 298.368 1538.14 298.521 1538.85 298.521C1539.31 298.521 1539.72 298.457 1540.09 298.329C1540.47 298.195 1540.79 297.998 1541.06 297.736C1541.33 297.469 1541.54 297.138 1541.69 296.743L1543.38 297.217C1543.2 297.79 1542.9 298.294 1542.48 298.729C1542.06 299.158 1541.54 299.494 1540.93 299.736C1540.31 299.973 1539.62 300.092 1538.85 300.092ZM1547.96 293.01V299.854H1546.22V284.684H1547.96V290.255H1548.11C1548.38 289.667 1548.78 289.2 1549.31 288.855C1549.85 288.504 1550.57 288.329 1551.46 288.329C1552.24 288.329 1552.92 288.484 1553.5 288.795C1554.08 289.101 1554.53 289.573 1554.85 290.21C1555.18 290.842 1555.34 291.647 1555.34 292.625V299.854H1553.59V292.743C1553.59 291.84 1553.36 291.141 1552.89 290.647C1552.43 290.148 1551.78 289.899 1550.96 289.899C1550.38 289.899 1549.87 290.02 1549.42 290.262C1548.97 290.504 1548.61 290.857 1548.35 291.321C1548.09 291.785 1547.96 292.348 1547.96 293.01ZM1561.89 300.121C1561.17 300.121 1560.51 299.985 1559.93 299.714C1559.34 299.437 1558.87 299.04 1558.53 298.521C1558.18 297.998 1558.01 297.366 1558.01 296.625C1558.01 295.973 1558.14 295.445 1558.39 295.04C1558.65 294.63 1558.99 294.309 1559.42 294.077C1559.85 293.845 1560.33 293.672 1560.84 293.558C1561.37 293.44 1561.89 293.346 1562.42 293.277C1563.11 293.188 1563.67 293.121 1564.1 293.077C1564.54 293.027 1564.85 292.946 1565.05 292.832C1565.25 292.719 1565.36 292.521 1565.36 292.24V292.18C1565.36 291.45 1565.16 290.882 1564.76 290.477C1564.36 290.072 1563.76 289.869 1562.96 289.869C1562.12 289.869 1561.47 290.052 1560.99 290.418C1560.52 290.783 1560.18 291.173 1559.99 291.588L1558.33 290.995C1558.63 290.304 1559.02 289.766 1559.52 289.38C1560.02 288.99 1560.56 288.719 1561.15 288.566C1561.74 288.408 1562.32 288.329 1562.9 288.329C1563.26 288.329 1563.68 288.373 1564.16 288.462C1564.63 288.546 1565.1 288.721 1565.54 288.988C1565.99 289.255 1566.36 289.657 1566.66 290.195C1566.96 290.734 1567.1 291.455 1567.1 292.358V299.854H1565.36V298.314H1565.27C1565.15 298.561 1564.95 298.825 1564.67 299.106C1564.4 299.388 1564.03 299.627 1563.57 299.825C1563.11 300.022 1562.55 300.121 1561.89 300.121ZM1562.16 298.551C1562.85 298.551 1563.43 298.415 1563.9 298.143C1564.38 297.872 1564.74 297.521 1564.98 297.092C1565.23 296.662 1565.36 296.21 1565.36 295.736V294.136C1565.28 294.225 1565.12 294.306 1564.87 294.38C1564.62 294.45 1564.33 294.511 1564.01 294.566C1563.69 294.615 1563.37 294.659 1563.07 294.699C1562.76 294.734 1562.52 294.763 1562.33 294.788C1561.88 294.847 1561.45 294.943 1561.06 295.077C1560.67 295.205 1560.35 295.4 1560.11 295.662C1559.87 295.919 1559.76 296.269 1559.76 296.714C1559.76 297.321 1559.98 297.78 1560.43 298.092C1560.88 298.398 1561.46 298.551 1562.16 298.551ZM1570.29 299.854V288.477H1571.98V290.195H1572.1C1572.31 289.632 1572.68 289.176 1573.23 288.825C1573.77 288.474 1574.38 288.299 1575.06 288.299C1575.19 288.299 1575.35 288.301 1575.55 288.306C1575.74 288.311 1575.88 288.319 1575.98 288.329V290.106C1575.92 290.092 1575.79 290.069 1575.58 290.04C1575.37 290.005 1575.15 289.988 1574.92 289.988C1574.36 289.988 1573.87 290.104 1573.43 290.336C1573.01 290.563 1572.66 290.879 1572.41 291.284C1572.17 291.684 1572.04 292.141 1572.04 292.655V299.854H1570.29ZM1578.06 299.854V288.477H1579.8V299.854H1578.06ZM1578.94 286.581C1578.6 286.581 1578.31 286.464 1578.06 286.232C1577.82 286 1577.7 285.721 1577.7 285.395C1577.7 285.069 1577.82 284.79 1578.06 284.558C1578.31 284.326 1578.6 284.21 1578.94 284.21C1579.28 284.21 1579.58 284.326 1579.82 284.558C1580.06 284.79 1580.19 285.069 1580.19 285.395C1580.19 285.721 1580.06 286 1579.82 286.232C1579.58 286.464 1579.28 286.581 1578.94 286.581Z" fill="white"/>
<path d="M910.655 399V99.8566H1090.02V131.991H946.879V233.069H1076.59V265.203H946.879V399H910.655ZM1192.08 403.674C1170.47 403.674 1151.82 398.903 1136.14 389.36C1120.56 379.719 1108.53 366.281 1100.06 349.045C1091.69 331.712 1087.5 311.555 1087.5 288.574C1087.5 265.593 1091.69 245.338 1100.06 227.811C1108.53 210.185 1120.32 196.455 1135.41 186.62C1150.6 176.687 1168.32 171.721 1188.58 171.721C1200.26 171.721 1211.8 173.669 1223.2 177.564C1234.59 181.459 1244.96 187.788 1254.31 196.552C1263.66 205.219 1271.11 216.709 1276.66 231.024C1282.21 245.338 1284.98 262.964 1284.98 283.9V298.507H1112.04V268.709H1249.93C1249.93 256.05 1247.39 244.754 1242.33 234.822C1237.36 224.889 1230.26 217.05 1221 211.305C1211.85 205.56 1201.04 202.687 1188.58 202.687C1174.85 202.687 1162.97 206.095 1152.94 212.912C1143.01 219.631 1135.36 228.395 1130.01 239.204C1124.65 250.013 1121.97 261.6 1121.97 273.967V293.832C1121.97 310.776 1124.89 325.139 1130.74 336.922C1136.68 348.607 1144.9 357.517 1155.42 363.652C1165.94 369.689 1178.16 372.708 1192.08 372.708C1201.14 372.708 1209.32 371.442 1216.62 368.91C1224.02 366.281 1230.4 362.386 1235.76 357.225C1241.11 351.967 1245.25 345.442 1248.17 337.652L1281.48 347C1277.97 358.296 1272.08 368.229 1263.8 376.798C1255.52 385.27 1245.3 391.891 1233.13 396.663C1220.96 401.337 1207.27 403.674 1192.08 403.674ZM1338.99 264.035V399H1304.51V99.8566H1338.99V209.698H1341.91C1347.16 198.11 1355.05 188.908 1365.57 182.092C1376.18 175.178 1390.3 171.721 1407.93 171.721C1423.22 171.721 1436.61 174.788 1448.1 180.923C1459.59 186.961 1468.5 196.26 1474.83 208.822C1481.25 221.286 1484.47 237.159 1484.47 256.439V399H1450V258.777C1450 240.956 1445.37 227.178 1436.12 217.44C1426.97 207.605 1414.26 202.687 1398 202.687C1386.7 202.687 1376.57 205.073 1367.61 209.844C1358.75 214.616 1351.74 221.578 1346.58 230.732C1341.52 239.885 1338.99 250.986 1338.99 264.035ZM1580.65 404.258C1566.43 404.258 1553.53 401.581 1541.94 396.225C1530.35 390.772 1521.15 382.933 1514.33 372.708C1507.52 362.386 1504.11 349.922 1504.11 335.315C1504.11 322.461 1506.64 312.042 1511.7 304.057C1516.77 295.975 1523.54 289.645 1532.01 285.068C1540.48 280.492 1549.83 277.083 1560.05 274.844C1570.37 272.507 1580.74 270.657 1591.16 269.293C1604.8 267.54 1615.85 266.226 1624.32 265.349C1632.89 264.376 1639.12 262.769 1643.02 260.529C1647.01 258.29 1649.01 254.395 1649.01 248.844V247.675C1649.01 233.264 1645.06 222.065 1637.17 214.08C1629.38 206.095 1617.55 202.103 1601.68 202.103C1585.22 202.103 1572.32 205.706 1562.97 212.912C1553.63 220.118 1547.05 227.81 1543.25 235.99L1510.54 224.305C1516.38 210.672 1524.17 200.058 1533.91 192.462C1543.74 184.77 1554.45 179.414 1566.04 176.395C1577.73 173.279 1589.22 171.721 1600.51 171.721C1607.72 171.721 1616 172.598 1625.34 174.35C1634.79 176.006 1643.89 179.463 1652.66 184.721C1661.52 189.979 1668.87 197.916 1674.71 208.53C1680.56 219.144 1683.48 233.361 1683.48 251.181V399H1649.01V368.618H1647.25C1644.92 373.487 1641.02 378.697 1635.57 384.247C1630.11 389.798 1622.86 394.521 1613.8 398.416C1604.75 402.311 1593.7 404.258 1580.65 404.258ZM1585.91 373.292C1599.54 373.292 1611.03 370.614 1620.38 365.259C1629.82 359.903 1636.93 352.989 1641.7 344.517C1646.57 336.045 1649.01 327.135 1649.01 317.787V286.237C1647.55 287.99 1644.33 289.596 1639.37 291.057C1634.5 292.42 1628.85 293.638 1622.42 294.709C1616.09 295.683 1609.91 296.559 1603.87 297.338C1597.93 298.02 1593.11 298.604 1589.41 299.091C1580.45 300.259 1572.08 302.158 1564.29 304.787C1556.6 307.319 1550.36 311.166 1545.59 316.327C1540.92 321.39 1538.58 328.304 1538.58 337.068C1538.58 349.045 1543.01 358.101 1551.87 364.236C1560.83 370.274 1572.18 373.292 1585.91 373.292ZM1713.49 399V174.642H1746.79V208.53H1749.13C1753.22 197.429 1760.62 188.421 1771.33 181.508C1782.04 174.594 1794.12 171.137 1807.56 171.137C1810.09 171.137 1813.25 171.186 1817.05 171.283C1820.85 171.38 1823.72 171.526 1825.67 171.721V206.777C1824.5 206.485 1821.82 206.047 1817.64 205.462C1813.55 204.781 1809.21 204.44 1804.64 204.44C1793.73 204.44 1783.99 206.728 1775.42 211.305C1766.95 215.784 1760.23 222.017 1755.26 230.001C1750.4 237.889 1747.96 246.896 1747.96 257.024V399H1713.49ZM1833.62 399V174.642H1868.1V399H1833.62ZM1851.15 137.25C1844.43 137.25 1838.64 134.961 1833.77 130.384C1829 125.808 1826.61 120.306 1826.61 113.879C1826.61 107.452 1829 101.95 1833.77 97.3734C1838.64 92.7967 1844.43 90.5083 1851.15 90.5083C1857.87 90.5083 1863.62 92.7967 1868.39 97.3734C1873.26 101.95 1875.69 107.452 1875.69 113.879C1875.69 120.306 1873.26 125.808 1868.39 130.384C1863.62 134.961 1857.87 137.25 1851.15 137.25ZM2149.37 174.642C2147.62 159.841 2140.51 148.351 2128.05 140.171C2115.58 131.991 2100.3 127.901 2082.18 127.901C2068.94 127.901 2057.35 130.044 2047.42 134.328C2037.59 138.613 2029.89 144.504 2024.34 152.002C2018.89 159.5 2016.16 168.021 2016.16 177.564C2016.16 185.549 2018.06 192.414 2021.86 198.159C2025.75 203.807 2030.72 208.53 2036.76 212.327C2042.8 216.028 2049.12 219.095 2055.75 221.53C2062.37 223.867 2068.45 225.766 2074 227.226L2104.39 235.406C2112.18 237.451 2120.84 240.275 2130.39 243.878C2140.03 247.481 2149.23 252.398 2157.99 258.63C2166.85 264.765 2174.16 272.653 2179.9 282.293C2185.65 291.934 2188.52 303.765 2188.52 317.787C2188.52 333.952 2184.28 348.558 2175.81 361.607C2167.44 374.656 2155.17 385.026 2139 392.719C2122.94 400.412 2103.41 404.258 2080.43 404.258C2059.01 404.258 2040.46 400.801 2024.78 393.888C2009.2 386.974 1996.93 377.334 1987.97 364.967C1979.11 352.6 1974.1 338.236 1972.93 321.877H2010.32C2011.29 333.173 2015.09 342.521 2021.71 349.922C2028.43 357.225 2036.9 362.678 2047.13 366.281C2057.45 369.787 2068.55 371.54 2080.43 371.54C2094.26 371.54 2106.67 369.3 2117.68 364.821C2128.68 360.244 2137.4 353.914 2143.82 345.832C2150.25 337.652 2153.46 328.109 2153.46 317.203C2153.46 307.27 2150.69 299.188 2145.14 292.956C2139.59 286.724 2132.28 281.66 2123.23 277.765C2114.17 273.87 2104.39 270.462 2093.87 267.54L2057.06 257.024C2033.69 250.305 2015.19 240.713 2001.56 228.249C1987.92 215.784 1981.11 199.474 1981.11 179.317C1981.11 162.568 1985.63 147.961 1994.69 135.497C2003.84 122.935 2016.11 113.197 2031.5 106.283C2046.98 99.2723 2064.27 95.7667 2083.35 95.7667C2102.63 95.7667 2119.77 99.2236 2134.77 106.137C2149.76 112.954 2161.64 122.302 2170.41 134.182C2179.27 146.062 2183.94 159.549 2184.43 174.642H2149.37ZM2308.07 174.642V203.856H2191.8V174.642H2308.07ZM2225.69 120.89H2260.16V334.731C2260.16 344.469 2261.57 351.772 2264.4 356.641C2267.32 361.412 2271.02 364.626 2275.5 366.281C2280.08 367.839 2284.9 368.618 2289.96 368.618C2293.76 368.618 2296.87 368.423 2299.31 368.034C2301.74 367.547 2303.69 367.158 2305.15 366.865L2312.16 397.831C2309.82 398.708 2306.56 399.584 2302.37 400.461C2298.19 401.434 2292.88 401.921 2286.45 401.921C2276.72 401.921 2267.17 399.828 2257.82 395.64C2248.57 391.453 2240.88 385.075 2234.75 376.506C2228.71 367.937 2225.69 357.128 2225.69 344.079V120.89ZM2468.41 307.27V174.642H2502.88V399H2468.41V361.023H2466.07C2460.82 372.416 2452.64 382.105 2441.53 390.09C2430.43 397.978 2416.41 401.921 2399.47 401.921C2385.45 401.921 2372.98 398.854 2362.07 392.719C2351.17 386.487 2342.6 377.139 2336.37 364.674C2330.13 352.113 2327.02 336.289 2327.02 317.203V174.642H2361.49V314.866C2361.49 331.225 2366.07 344.274 2375.22 354.012C2384.47 363.749 2396.25 368.618 2410.57 368.618C2419.14 368.618 2427.85 366.427 2436.71 362.045C2445.67 357.663 2453.17 350.944 2459.21 341.888C2465.34 332.832 2468.41 321.293 2468.41 307.27ZM2617.83 403.674C2599.14 403.674 2582.63 398.951 2568.32 389.506C2554 379.963 2542.8 366.525 2534.72 349.191C2526.64 331.761 2522.6 311.166 2522.6 287.405C2522.6 263.84 2526.64 243.391 2534.72 226.058C2542.8 208.725 2554.05 195.335 2568.46 185.89C2582.87 176.444 2599.53 171.721 2618.42 171.721C2633.02 171.721 2644.56 174.156 2653.03 179.024C2661.6 183.796 2668.13 189.249 2672.61 195.384C2677.18 201.421 2680.74 206.387 2683.27 210.283H2686.19V99.8566H2720.66V399H2687.36V364.528H2683.27C2680.74 368.618 2677.13 373.779 2672.46 380.011C2667.79 386.146 2661.12 391.648 2652.45 396.517C2643.78 401.288 2632.24 403.674 2617.83 403.674ZM2622.51 372.708C2636.33 372.708 2648.02 369.105 2657.56 361.899C2667.11 354.596 2674.36 344.517 2679.33 331.664C2684.29 318.712 2686.78 303.765 2686.78 286.821C2686.78 270.072 2684.34 255.417 2679.47 242.855C2674.6 230.196 2667.4 220.361 2657.85 213.35C2648.31 206.241 2636.53 202.687 2622.51 202.687C2607.9 202.687 2595.73 206.436 2585.99 213.934C2576.35 221.335 2569.09 231.413 2564.23 244.17C2559.45 256.829 2557.07 271.046 2557.07 286.821C2557.07 302.791 2559.5 317.3 2564.37 330.349C2569.34 343.3 2576.64 353.622 2586.28 361.315C2596.02 368.91 2608.09 372.708 2622.51 372.708ZM2755.68 399V174.642H2790.15V399H2755.68ZM2773.21 137.25C2766.49 137.25 2760.69 134.961 2755.82 130.384C2751.05 125.808 2748.67 120.306 2748.67 113.879C2748.67 107.452 2751.05 101.95 2755.82 97.3734C2760.69 92.7967 2766.49 90.5083 2773.21 90.5083C2779.92 90.5083 2785.67 92.7967 2790.44 97.3734C2795.31 101.95 2797.74 107.452 2797.74 113.879C2797.74 120.306 2795.31 125.808 2790.44 130.384C2785.67 134.961 2779.92 137.25 2773.21 137.25ZM2911.53 403.674C2891.27 403.674 2873.5 398.854 2858.21 389.214C2843.02 379.573 2831.14 366.086 2822.57 348.753C2814.1 331.42 2809.86 311.166 2809.86 287.99C2809.86 264.619 2814.1 244.219 2822.57 226.788C2831.14 209.357 2843.02 195.822 2858.21 186.182C2873.5 176.541 2891.27 171.721 2911.53 171.721C2931.78 171.721 2949.5 176.541 2964.69 186.182C2979.98 195.822 2991.86 209.357 3000.33 226.788C3008.9 244.219 3013.19 264.619 3013.19 287.99C3013.19 311.166 3008.9 331.42 3000.33 348.753C2991.86 366.086 2979.98 379.573 2964.69 389.214C2949.5 398.854 2931.78 403.674 2911.53 403.674ZM2911.53 372.708C2926.91 372.708 2939.57 368.764 2949.5 360.877C2959.44 352.989 2966.79 342.618 2971.56 329.765C2976.33 316.911 2978.72 302.986 2978.72 287.99C2978.72 272.994 2976.33 259.02 2971.56 246.069C2966.79 233.118 2959.44 222.649 2949.5 214.665C2939.57 206.68 2926.91 202.687 2911.53 202.687C2896.14 202.687 2883.48 206.68 2873.55 214.665C2863.62 222.649 2856.26 233.118 2851.49 246.069C2846.72 259.02 2844.34 272.994 2844.34 287.99C2844.34 302.986 2846.72 316.911 2851.49 329.765C2856.26 342.618 2863.62 352.989 2873.55 360.877C2883.48 368.764 2896.14 372.708 2911.53 372.708Z" fill="white"/>
<path d="M3057.06 153.545V129.131H3069.43C3070.43 129.131 3071.51 129.418 3072.68 129.991C3073.85 130.543 3074.84 131.403 3075.65 132.572C3076.49 133.719 3076.91 135.174 3076.91 136.939C3076.91 138.725 3076.48 140.247 3075.62 141.504C3074.76 142.739 3073.71 143.676 3072.48 144.316C3071.27 144.955 3070.12 145.275 3069.04 145.275H3060.11V141.305H3067.38C3068.11 141.305 3068.89 140.941 3069.73 140.214C3070.59 139.486 3071.02 138.394 3071.02 136.939C3071.02 135.439 3070.59 134.424 3069.73 133.895C3068.89 133.366 3068.16 133.101 3067.52 133.101H3062.42V153.545H3057.06ZM3071.82 142.033L3077.9 153.545H3072.02L3066.06 142.033H3071.82ZM3066.33 168.101C3062.66 168.101 3059.23 167.417 3056.04 166.05C3052.84 164.683 3050.03 162.786 3047.6 160.36C3045.18 157.934 3043.28 155.122 3041.91 151.924C3040.54 148.726 3039.86 145.297 3039.86 141.636C3039.86 137.975 3040.54 134.546 3041.91 131.348C3043.28 128.15 3045.18 125.338 3047.6 122.912C3050.03 120.486 3052.84 118.59 3056.04 117.222C3059.23 115.855 3062.66 115.171 3066.33 115.171C3069.99 115.171 3073.42 115.855 3076.61 117.222C3079.81 118.59 3082.62 120.486 3085.05 122.912C3087.48 125.338 3089.37 128.15 3090.74 131.348C3092.11 134.546 3092.79 137.975 3092.79 141.636C3092.79 145.297 3092.11 148.726 3090.74 151.924C3089.37 155.122 3087.48 157.934 3085.05 160.36C3082.62 162.786 3079.81 164.683 3076.61 166.05C3073.42 167.417 3069.99 168.101 3066.33 168.101ZM3066.33 161.749C3070.03 161.749 3073.4 160.845 3076.45 159.037C3079.49 157.228 3081.92 154.802 3083.73 151.759C3085.53 148.715 3086.44 145.341 3086.44 141.636C3086.44 137.931 3085.53 134.557 3083.73 131.513C3081.92 128.47 3079.49 126.044 3076.45 124.235C3073.4 122.427 3070.03 121.523 3066.33 121.523C3062.62 121.523 3059.25 122.427 3056.2 124.235C3053.16 126.044 3050.73 128.47 3048.92 131.513C3047.12 134.557 3046.21 137.931 3046.21 141.636C3046.21 145.341 3047.12 148.715 3048.92 151.759C3050.73 154.802 3053.16 157.228 3056.2 159.037C3059.25 160.845 3062.62 161.749 3066.33 161.749Z" fill="white"/>
<path d="M250.749 121.22C258.664 112.669 272.05 112.26 280.472 120.313L480.116 311.197C484.114 315.02 486.43 320.275 486.554 325.806L488.837 427.571C489.253 446.149 467 455.958 453.568 443.116L202.744 203.296C194.513 195.426 194.116 182.409 201.851 174.051L250.749 121.22ZM170.66 204.908C169.276 211.702 171.312 219.031 176.683 224.166L245.957 290.4L137.441 398.916C133.529 402.828 128.223 405.026 122.691 405.026H20.901C2.31764 405.026 -6.98907 382.558 6.15099 369.417L170.66 204.908ZM360.269 13.4575C368.184 4.90608 381.571 4.49761 389.993 12.5502L589.636 203.434C593.635 207.257 595.951 212.513 596.075 218.043L598.357 319.808C598.774 338.387 576.52 348.195 563.088 335.353L312.264 95.5336C304.033 87.6635 303.636 74.6463 311.372 66.2885L360.269 13.4575Z" fill="url(#paint0_linear_289_238)"/>
<defs>
<linearGradient id="paint0_linear_289_238" x1="262.145" y1="136.889" x2="565.515" y2="89.3861" gradientUnits="userSpaceOnUse">
<stop stop-color="#DE2F14"/>
<stop offset="1" stop-color="#FF7700"/>
</linearGradient>
</defs>
</svg>
