<svg width="1418" height="301" viewBox="0 0 1418 301" fill="none" xmlns="http://www.w3.org/2000/svg">
<path fill-rule="evenodd" clip-rule="evenodd" d="M1116.43 152.461H1129.29V20.8506L1190.59 152.461H1201.31L1262.62 20.8506V152.461H1275.48V2.41064H1257.9L1195.95 135.101L1134 2.41064H1116.43V152.461Z" fill="#030104"/>
<path fill-rule="evenodd" clip-rule="evenodd" d="M1359.07 154.62C1388.01 154.62 1417.38 141.76 1417.38 112.18C1417.38 83.6704 1388.44 74.2404 1363.79 65.4504C1341.93 57.7304 1326.92 51.0905 1326.92 35.4405C1326.92 20.4405 1341.71 12.0804 1366.15 12.0804C1380.08 12.0804 1391.87 14.4304 1407.31 18.7204V6.93046C1397.87 3.50046 1382.44 0.290443 1366.36 0.290443C1340.43 0.290443 1313.42 9.29048 1313.42 35.0105C1313.42 59.4505 1336.14 68.4504 1361 77.4504C1382.65 85.1704 1403.88 92.2504 1403.88 112.18C1403.88 131.47 1384.37 143.26 1358.43 143.26C1340.43 143.26 1322.85 139.4 1309.56 132.33V144.98C1318.56 150.12 1338.07 154.62 1359.07 154.62ZM56.47 130.1C43.66 130.3 28.64 123.79 17.11 113.85L0 133.32C16.67 146.85 37.04 155.08 58.83 154.78C88.9 154.36 110.35 136.36 110.24 111.36V111.35C110.12 86.5304 93.79 71.4105 59.79 63.3105C41.44 58.7105 34.72 53.0304 34.72 42.4204C34.72 32.2904 44.26 24.6705 58 24.5105C68.4 24.4005 80.54 29.0605 89.18 36.3705L105.77 19.2304C93.2 7.17045 73.61 -0.319525 55.4 0.0104751C26.05 0.490475 5.37 17.9304 5.37 42.4704C5.37 66.8304 20.98 79.8605 54.7 88.6305C73.76 93.9705 79.89 99.1304 80.03 111.48C80.16 122.14 69.9 129.87 56.47 130.1Z" fill="#030104"/>
<path fill-rule="evenodd" clip-rule="evenodd" d="M165.34 152.471H135.12V2.31073H165.34V152.471ZM278.35 26.2907C248.56 26.2907 233.05 46.8407 233.05 76.4607V152.471H202.82V2.14069H233.05V28.9507C242.35 13.2107 260.44 0.520691 285.37 0.520691C329.55 0.520691 348.86 26.7807 348.86 75.3207V152.471H317.89V76.1807C317.89 43.2607 306.93 26.2907 278.35 26.2907ZM374.6 77.1608C374.6 33.0308 406.91 0.0107422 449.92 0.0107422C476.23 0.0107422 499.36 12.3907 510.5 32.1007L510.15 2.0907H540.39V152.471H510.15L510.5 122.091C499.36 141.801 476.23 154.431 449.92 154.431C406.91 154.431 374.6 121.411 374.6 77.1608ZM405.7 76.4607C405.7 105.971 428.46 128.321 458.77 128.321C488.78 128.321 511.72 105.801 511.72 76.4607C511.72 47.9407 488.61 25.7707 458.77 25.7707C428.46 25.7707 405.7 47.5907 405.7 76.4607ZM607.28 122.911V194.151H577.05V2.31073H607.28L606.93 32.5807C618.07 12.8607 641.2 0.350708 667.51 0.350708C710.53 0.350708 742.83 33.3807 742.83 77.5107C742.83 121.761 710.53 154.781 667.51 154.781C640.85 154.781 617.9 142.441 607.28 122.911ZM658.66 129.011C688.97 129.011 711.74 107.191 711.74 78.2007C711.74 48.8107 688.97 26.4707 658.66 26.4707C628.65 26.4707 605.72 48.9807 605.72 78.2007C605.72 106.841 628.83 129.011 658.66 129.011ZM857.35 0.350708V27.9807C817.12 24.6307 800.5 50.0307 800.5 84.8007V152.471H770.27V2.44073H800.5L799.74 32.2807C807.4 14.0407 825.68 -2.49929 857.35 0.350708ZM1026.42 77.4108C1026.42 119.681 994.01 154.431 943.24 154.431C892.46 154.431 860.19 119.681 860.19 77.4108C860.19 35.5308 892.64 0.250732 943.41 0.250732C994.01 0.250732 1026.42 35.5308 1026.42 77.4108ZM995.79 77.0507C995.79 50.0507 975.58 26.1407 943.41 26.1407C911.59 26.1407 891.11 49.3407 891.11 77.0507C891.11 105.301 911.59 128.321 943.24 128.321C975.23 128.321 995.79 105.301 995.79 77.0507ZM1079.72 134.341C1079.72 145.511 1070.66 154.571 1059.49 154.571C1048.31 154.571 1039.26 145.511 1039.26 134.341C1039.26 123.171 1048.31 114.111 1059.49 114.111C1070.66 114.111 1079.72 123.171 1079.72 134.341ZM20.3201 249.661C15.5601 249.661 11.5701 248.631 9.37012 247.641V241.221C12.1501 242.431 16.0601 243.101 19.3801 243.101C23.9601 243.101 26.1201 242.071 26.1201 239.911C26.1201 237.621 23.3401 237.001 20.1501 236.321C13.8101 234.971 9.64014 233.041 9.64014 226.891C9.64014 219.211 16.1502 217.321 22.6602 217.321C26.2502 217.321 29.6701 217.911 32.0901 218.671V225.141C29.2201 224.281 26.4401 223.791 23.6501 223.791C19.7001 223.791 17.9001 224.551 17.9001 226.401C17.9001 228.551 20.1901 229.091 24.1401 229.991C29.8501 231.291 34.3801 233.041 34.3801 239.421C34.3801 247.241 27.6001 249.661 20.3201 249.661Z" fill="#030104"/>
<path fill-rule="evenodd" clip-rule="evenodd" d="M50.48 249.21H42.4001V217.77H50.48V249.21ZM76.0901 239.91C76.0901 237.62 73.3101 236.99 70.1201 236.32C63.7801 234.97 59.61 233.04 59.61 226.89C59.61 219.21 66.1201 217.32 72.6301 217.32C76.2201 217.32 79.6401 217.91 82.0601 218.67V225.14C79.1901 224.28 76.4001 223.79 73.6201 223.79C69.6701 223.79 67.8701 224.55 67.8701 226.39C67.8701 228.55 70.16 229.09 74.11 229.99C79.82 231.29 84.3501 233.04 84.3501 239.42C84.3501 247.24 77.57 249.66 70.29 249.66C65.53 249.66 61.5401 248.63 59.3401 247.64V241.21C62.1201 242.43 66.0301 243.1 69.3501 243.1C73.9401 243.1 76.0901 242.07 76.0901 239.91ZM117.7 224.96H108V249.21H99.92V224.96H90.17V217.77H117.7V224.96ZM151.58 249.21H126.25V217.78H151.58V224.42H134.33V230.04H149.29V236.37H134.33V242.52H151.58V249.21ZM190.91 226.85L182.82 249.21H176.13L168.4 227.97V249.21H161.22V217.77H172.8L179.81 238.34L186.82 217.77H198.99V249.21H190.91V226.85ZM217.02 243.38L215.19 249.22H206.92L217.57 217.78H229.2L239.84 249.22H231.22L229.38 243.38H217.02ZM218.95 237.36H227.44L223.27 224.16H223.17L218.95 237.36ZM284.46 217.78H292.32V249.22H282.53L269.51 227.61V249.22H261.65V217.78H271.75L284.46 238.62V217.78ZM310.9 217.78H322.53L333.18 249.22H324.55L322.71 243.38H310.35L308.52 249.22H300.25L310.9 217.78ZM312.29 237.36H320.78L316.6 224.16H316.51L312.29 237.36ZM356.38 242.48C359.79 242.48 362.49 241.8 365.22 240.5V247.46C361.9 249.26 358.53 249.66 355.75 249.66C345.55 249.66 338.5 243.06 338.5 233.49C338.5 223.93 345.6 217.33 355.75 217.33C358.49 217.33 361.77 217.68 365.09 219.21V226.35C361.77 224.82 359.21 224.42 356.56 224.42C350.45 224.42 346.9 228.37 346.9 233.4C346.9 238.52 350.45 242.48 356.38 242.48ZM382.53 249.21H374.45V217.77H382.53V249.21ZM408.51 217.32C419.24 217.32 425.8 224.2 425.8 233.49C425.8 242.75 419.24 249.66 408.51 249.66C397.82 249.66 391.22 242.75 391.22 233.49C391.22 224.2 397.82 217.32 408.51 217.32ZM408.51 224.6C402.98 224.6 399.52 228.51 399.52 233.49C399.52 238.48 402.98 242.34 408.51 242.34C414.03 242.34 417.53 238.48 417.53 233.49C417.53 228.51 414.03 224.6 408.51 224.6ZM454.92 249.21L441.9 227.61V249.21H434.04V217.77H444.14L456.85 238.62V217.77H464.72V249.21H454.92ZM494.91 217.77L505.56 249.21H496.94L495.09 243.37H482.74L480.9 249.21H472.63L483.28 217.77H494.91ZM493.16 237.36L488.98 224.15H488.89L484.67 237.36H493.16ZM521.57 217.77V241.94H535.89V249.21H513.48V217.77H521.57ZM37.9001 285.01C37.9001 295.6 29.3301 299.77 20.1401 299.77H11.54V270.25H20.1401C29.3301 270.25 37.9001 274.51 37.9001 285.01ZM33.5101 285.01C33.5101 276.7 26.93 273.92 19.98 273.92H15.7601V296.1H19.98C26.93 296.1 33.5101 293.36 33.5101 285.01Z" fill="#030104"/>
<path fill-rule="evenodd" clip-rule="evenodd" d="M59.7601 270.25L71.7802 299.771H67.2701L64.4401 292.6H49.5601L46.6901 299.771H42.3901L54.4901 270.25H59.7601ZM62.9601 288.93L57.0201 273.87L51.0302 288.93H62.9601ZM98.9401 291.37C98.9401 297.7 93.0801 300.19 87.0901 300.19C82.9601 300.19 79.1202 299.22 77.2202 298.25V294.541C79.8402 295.801 83.2601 296.521 86.8001 296.521C91.2701 296.521 94.5601 294.62 94.5601 291.76C94.5601 288.42 91.0601 287.28 87.4301 286.1C82.5801 284.5 77.7301 283.07 77.7301 277.33C77.7301 271.77 83.2601 269.83 88.7401 269.83C91.9401 269.83 95.0201 270.5 96.9201 271.22V274.76C93.9701 273.92 91.5602 273.411 88.7802 273.411C84.6502 273.411 82.1201 274.68 82.1201 277.12C82.1201 279.74 84.6501 280.83 88.3201 282.05C93.0801 283.61 98.9401 285.3 98.9401 291.37ZM132.6 270.25L144.62 299.771H140.1L137.28 292.6H122.39L119.53 299.771H115.22L127.33 270.25H132.6ZM135.8 288.93L129.85 273.87L123.87 288.93H135.8ZM171.82 284.161H176.04V297.151C173.05 299.261 169.59 300.19 165.67 300.19C155.42 300.19 149.26 294.41 149.26 285.01C149.26 275.65 155.71 269.83 165.16 269.83C167.69 269.83 170.73 270.081 173.85 271.641V275.22C170.85 273.75 168.15 273.37 165.5 273.37C158.37 273.37 153.69 277.8 153.69 285.01C153.69 291.88 158.28 296.56 166 296.56C168.45 296.56 170.6 296.02 172.29 295L171.82 284.161ZM195.62 263.291L201.6 265.781V268.22L195.62 265.95L189.71 268.22V265.781L195.62 263.291Z" fill="#030104"/>
<path fill-rule="evenodd" clip-rule="evenodd" d="M184.49 270.25H206.76V273.88H188.71V282.86H204.56V286.48H188.71V296.14H206.76V299.77H184.49V270.25ZM238.15 270.25H242.37V299.77H237.64L219.55 275.81V299.77H215.33V270.25H220.31L238.15 293.74V270.25ZM266.16 296.56C269.19 296.56 271.98 296.1 274.8 294.7V298.29C271.73 299.89 268.69 300.19 265.99 300.19C256.5 300.19 250.05 293.73 250.05 285.01C250.05 276.32 256.59 269.82 266.03 269.82C268.69 269.82 271.77 270.2 274.63 271.64V275.26C271.64 273.79 268.94 273.41 266.29 273.41C259.16 273.41 254.39 278.47 254.39 284.96C254.39 291.54 259.12 296.56 266.16 296.56ZM283.63 270.25H287.85V299.77H283.63V270.25ZM312.93 270.25L324.95 299.77H320.43L317.61 292.6H302.72L299.85 299.77H295.55L307.65 270.25H312.93ZM316.14 288.93L310.19 273.87L304.21 288.93H316.14ZM352.11 291.37C352.11 297.7 346.25 300.19 340.26 300.19C336.13 300.19 332.29 299.22 330.39 298.25V294.54C333.01 295.8 336.43 296.52 339.97 296.52C344.44 296.52 347.73 294.62 347.73 291.75C347.73 288.42 344.23 287.28 340.6 286.1C335.75 284.5 330.9 283.07 330.9 277.33C330.9 271.76 336.43 269.82 341.91 269.82C345.11 269.82 348.19 270.5 350.09 271.21V274.76C347.14 273.91 344.73 273.41 341.95 273.41C337.82 273.41 335.29 274.67 335.29 277.12C335.29 279.73 337.82 280.83 341.49 282.05C346.25 283.61 352.11 285.3 352.11 291.37ZM396.99 285.01C396.99 295.59 388.43 299.77 379.23 299.77H370.63V270.25H379.23C388.43 270.25 396.99 274.5 396.99 285.01ZM392.6 285.01C392.6 276.7 386.02 273.91 379.07 273.91H374.85V296.1H379.07C386.02 296.1 392.6 293.36 392.6 285.01ZM404.68 270.25H426.94V273.87H408.89V282.86H424.75V286.48H408.89V296.14H426.94V299.77H404.68V270.25ZM472.28 281.34C472.28 290.23 465.32 292.43 458.4 292.43H452.58V299.77H448.37V270.25H458.53C465.32 270.25 472.28 272.4 472.28 281.34ZM467.89 281.34C467.89 276.19 464.81 273.75 458.28 273.75H452.58V288.97H458.28C464.77 288.97 467.89 286.48 467.89 281.34ZM497.72 289.69L504.08 299.77H499.15L493.58 290.66C493.2 290.694 492.82 290.707 492.44 290.7H483.84V299.77H479.62V270.25H491.89C497.34 270.25 503.88 272.61 503.88 280.32C503.88 285.13 501.18 288.21 497.72 289.69ZM499.4 280.41C499.4 276.28 496.45 273.87 491.43 273.87H483.84V287.07H491.43C496.45 287.07 499.4 284.63 499.4 280.41ZM541.84 285.01C541.84 293.48 535.8 300.19 525.9 300.19C515.98 300.19 509.91 293.48 509.91 285.01C509.91 276.53 515.98 269.83 525.9 269.83C535.8 269.83 541.84 276.53 541.84 285.01ZM537.49 285.01C537.49 278.64 533.07 273.54 525.9 273.54C518.68 273.54 514.3 278.64 514.3 285.01C514.3 291.37 518.68 296.43 525.9 296.43C533.07 296.43 537.49 291.37 537.49 285.01ZM573.43 281.34C573.43 290.23 566.47 292.43 559.56 292.43H553.74V299.77H549.52V270.25H559.68C566.47 270.25 573.43 272.4 573.43 281.34ZM569.05 281.34C569.05 276.19 565.96 273.75 559.43 273.75H553.74V288.97H559.43C565.93 288.97 569.05 286.48 569.05 281.34ZM594.23 270.25L606.25 299.77H601.74L598.91 292.6H584.03L581.16 299.77H576.86L588.96 270.25H594.23ZM597.43 288.93L591.49 273.87L585.5 288.93H597.43ZM633.46 284.16H637.68V297.15C634.68 299.26 631.23 300.19 627.3 300.19C617.06 300.19 610.89 294.41 610.89 285.01C610.89 275.65 617.35 269.82 626.79 269.82C629.33 269.82 632.36 270.08 635.48 271.64V275.22C632.49 273.75 629.79 273.37 627.13 273.37C620.01 273.37 615.32 277.8 615.32 285.01C615.32 291.88 619.92 296.56 627.64 296.56C630.08 296.56 632.23 296.01 633.92 295L633.46 284.16ZM661.27 270.25L673.29 299.77H668.77L665.95 292.6H651.06L648.19 299.77H643.89L655.99 270.25H661.27ZM664.48 288.93L658.53 273.87L652.55 288.93H664.48ZM703.45 270.25H707.67V299.77H702.95L684.86 275.81V299.77H680.64V270.25H685.61L703.45 293.73V270.25ZM743.61 285.01C743.61 295.6 735.04 299.77 725.85 299.77H717.25V270.25H725.85C735.04 270.25 743.61 274.51 743.61 285.01ZM739.22 285.01C739.22 276.71 732.64 273.92 725.69 273.92H721.47V296.1H725.69C732.64 296.1 739.22 293.36 739.22 285.01ZM765.46 270.25L777.48 299.77H772.97L770.14 292.6H755.26L752.39 299.77H748.09L760.19 270.25H765.46ZM768.67 288.94L762.72 273.88L756.73 288.94H768.67Z" fill="#030104"/>
</svg>
